<svg width="60" height="60" viewBox="0 0 60 60" fill="none" xmlns="http://www.w3.org/2000/svg">
<ellipse cx="30" cy="28.5714" rx="30" ry="28.5714" fill="white"/>
<path fill-rule="evenodd" clip-rule="evenodd" d="M26.82 37.5428C27.22 37.5428 27.62 37.5428 28.02 37.5428C28.0595 35.8845 28.0195 34.2465 27.9 32.6285C24.5524 32.9872 22.0924 31.7681 20.52 28.9714C19.3454 25.8826 20.0855 23.3112 22.74 21.2571C24.3166 20.3209 26.0366 19.9589 27.9 20.1714C27.9 19.5237 27.9 18.8762 27.9 18.2285C25.6892 17.317 24.5692 15.6979 24.54 13.3714C24.9318 10.3698 26.7118 8.71263 29.88 8.39996C33.1925 8.67848 35.0124 10.3928 35.34 13.5428C35.2488 15.738 34.1688 17.3 32.1 18.2285C31.9806 18.8717 31.9405 19.5193 31.98 20.1714C33.9404 20.1523 35.9004 20.1714 37.86 20.2285C39.1746 20.7331 39.5946 21.6283 39.12 22.9142C38.7832 23.5382 38.2432 23.9002 37.5 24C35.6604 24.0571 33.8204 24.0762 31.98 24.0571C31.98 25.619 31.98 27.1809 31.98 28.7428C35.7064 28.7323 38.1264 30.4085 39.24 33.7714C39.6745 36.7332 38.5745 38.9998 35.94 40.5714C34.688 41.1384 33.368 41.386 31.98 41.3142C31.98 42.9142 31.98 44.5142 31.98 46.1142C33.0607 46.0953 34.1407 46.1142 35.22 46.1714C36.574 46.7131 36.994 47.6465 36.48 48.9714C36.253 49.378 35.913 49.6637 35.46 49.8285C34.3097 49.9908 33.1496 50.048 31.98 50C32.03 51.076 31.97 52.1426 31.8 53.2C31.0876 54.315 30.1075 54.6008 28.86 54.0571C28.5552 53.8051 28.2952 53.5194 28.08 53.2C27.91 52.1426 27.85 51.076 27.9 50C24.1429 49.9165 21.883 48.126 21.12 44.6285C20.8656 41.0604 22.5256 38.7176 26.1 37.6C26.3368 37.5434 26.5768 37.5243 26.82 37.5428Z" fill="#55A092"/>
<path fill-rule="evenodd" clip-rule="evenodd" d="M12.9 9.19995C16.0202 9.18091 19.1402 9.19995 22.26 9.25709C23.7852 9.88157 24.1651 10.8911 23.4 12.2857C23.1162 12.6707 22.7362 12.9183 22.26 13.0285C19.14 13.1047 16.02 13.1047 12.9 13.0285C11.4514 12.3178 11.1114 11.2702 11.88 9.88566C12.2083 9.6283 12.5483 9.39973 12.9 9.19995Z" fill="#54A092"/>
<path fill-rule="evenodd" clip-rule="evenodd" d="M37.5 9.19995C40.6202 9.18091 43.7402 9.19995 46.86 9.25709C48.3184 9.80773 48.7384 10.7792 48.12 12.1714C47.7976 12.5935 47.3776 12.8792 46.86 13.0285C43.74 13.1047 40.62 13.1047 37.5 13.0285C35.9738 12.249 35.6738 11.1633 36.6 9.77138C36.8975 9.56405 37.1975 9.37357 37.5 9.19995Z" fill="#54A092"/>
<path fill-rule="evenodd" clip-rule="evenodd" d="M29.34 11.0285C31.2184 10.952 32.2984 11.7901 32.58 13.5428C32.3816 15.0271 31.5016 15.8651 29.94 16.0571C28.0781 15.7887 27.2182 14.7601 27.36 12.9714C27.7223 12.036 28.3823 11.3884 29.34 11.0285Z" fill="#FCFDFD"/>
<path fill-rule="evenodd" clip-rule="evenodd" d="M16.26 14C18.3883 13.9475 20.5082 14.0047 22.62 14.1714C24.0181 15.0924 24.1782 16.1781 23.1 17.4285C22.8535 17.6221 22.5734 17.7555 22.26 17.8285C20.22 17.9048 18.18 17.9048 16.14 17.8285C14.7185 16.9983 14.4584 15.9125 15.36 14.5714C15.6575 14.3641 15.9575 14.1736 16.26 14Z" fill="#55A092"/>
<path fill-rule="evenodd" clip-rule="evenodd" d="M37.5 14C39.6283 13.9475 41.7482 14.0047 43.86 14.1714C45.2182 15.025 45.4181 16.0916 44.46 17.3714C44.1734 17.5841 43.8535 17.7364 43.5 17.8285C41.5 17.9048 39.5 17.9048 37.5 17.8285C36.1612 17.2075 35.7811 16.2361 36.36 14.9143C36.6926 14.5391 37.0727 14.2342 37.5 14Z" fill="#55A092"/>
<path fill-rule="evenodd" clip-rule="evenodd" d="M27.9 24.0571C27.9 25.6191 27.9 27.1809 27.9 28.7429C27.3 28.7429 26.7 28.7429 26.1 28.7429C24.4843 28.2866 23.8243 27.2581 24.12 25.6571C24.3666 25.0414 24.7866 24.5653 25.38 24.2286C26.2093 24.0704 27.0493 24.0133 27.9 24.0571Z" fill="#FDFEFE"/>
<path fill-rule="evenodd" clip-rule="evenodd" d="M27.9 24.0571C28.0195 25.6369 28.0595 27.2369 28.02 28.8571C27.3569 28.8938 26.7168 28.8558 26.1 28.7428C26.7 28.7428 27.3 28.7428 27.9 28.7428C27.9 27.1809 27.9 25.6191 27.9 24.0571Z" fill="#7FB7AE"/>
<path fill-rule="evenodd" clip-rule="evenodd" d="M27.9 32.6285C28.0195 34.2465 28.0595 35.8845 28.02 37.5428C27.62 37.5428 27.22 37.5428 26.82 37.5428C27.1544 37.4312 27.5144 37.3931 27.9 37.4285C27.9 35.8285 27.9 34.2285 27.9 32.6285Z" fill="#7DB6AC"/>
<path fill-rule="evenodd" clip-rule="evenodd" d="M31.98 32.6285C34.5985 32.5956 35.6185 33.7767 35.04 36.1714C34.3182 37.2204 33.2982 37.6395 31.98 37.4285C31.98 35.8285 31.98 34.2285 31.98 32.6285Z" fill="#FCFDFD"/>
<path fill-rule="evenodd" clip-rule="evenodd" d="M27.06 41.3143C27.34 41.3143 27.62 41.3143 27.9 41.3143C27.9 42.9143 27.9 44.5143 27.9 46.1143C25.7497 46.0267 24.8497 44.96 25.2 42.9143C25.5659 42.1036 26.1858 41.5703 27.06 41.3143Z" fill="#FCFDFD"/>
</svg>
