<svg width="40" height="40" viewBox="0 0 40 40" fill="none" xmlns="http://www.w3.org/2000/svg">
<path d="M13.8167 18.8167C13.665 18.9752 13.546 19.1621 13.4667 19.3667C13.3 19.7724 13.3 20.2276 13.4667 20.6333C13.546 20.8379 13.665 21.0248 13.8167 21.1833L18.8167 26.1833C19.1305 26.4972 19.5562 26.6735 20 26.6735C20.4439 26.6735 20.8695 26.4972 21.1834 26.1833C21.4972 25.8695 21.6735 25.4438 21.6735 25C21.6735 24.5562 21.4972 24.1305 21.1834 23.8167L19.0167 21.6667H25C25.4421 21.6667 25.866 21.4911 26.1786 21.1785C26.4911 20.8659 26.6667 20.442 26.6667 20C26.6667 19.558 26.4911 19.134 26.1786 18.8215C25.866 18.5089 25.4421 18.3333 25 18.3333H19.0167L21.1834 16.1833C21.3396 16.0284 21.4636 15.8441 21.5482 15.641C21.6328 15.4379 21.6764 15.22 21.6764 15C21.6764 14.78 21.6328 14.5621 21.5482 14.359C21.4636 14.1559 21.3396 13.9716 21.1834 13.8167C21.0284 13.6605 20.8441 13.5365 20.641 13.4518C20.4379 13.3672 20.2201 13.3237 20 13.3237C19.78 13.3237 19.5622 13.3672 19.3591 13.4518C19.156 13.5365 18.9716 13.6605 18.8167 13.8167L13.8167 18.8167ZM3.33337 20C3.33337 23.2964 4.31086 26.5187 6.14221 29.2595C7.97357 32.0003 10.5765 34.1365 13.622 35.398C16.6674 36.6595 20.0185 36.9895 23.2515 36.3464C26.4846 35.7033 29.4543 34.116 31.7852 31.7851C34.116 29.4542 35.7034 26.4845 36.3465 23.2515C36.9896 20.0185 36.6595 16.6674 35.398 13.6219C34.1366 10.5765 32.0004 7.97353 29.2595 6.14217C26.5187 4.31082 23.2964 3.33333 20 3.33333C17.8113 3.33333 15.6441 3.76443 13.622 4.60201C11.5999 5.43958 9.76257 6.66724 8.21493 8.21489C5.08932 11.3405 3.33337 15.5797 3.33337 20ZM33.3334 20C33.3334 22.6371 32.5514 25.2149 31.0863 27.4076C29.6212 29.6003 27.5388 31.3092 25.1025 32.3184C22.6661 33.3276 19.9853 33.5916 17.3988 33.0771C14.8124 32.5627 12.4367 31.2928 10.572 29.4281C8.70725 27.5634 7.43737 25.1876 6.9229 22.6012C6.40843 20.0148 6.67248 17.3339 7.68165 14.8976C8.69082 12.4612 10.3998 10.3788 12.5924 8.91374C14.7851 7.44865 17.363 6.66667 20 6.66667C23.5363 6.66667 26.9276 8.07142 29.4281 10.5719C31.9286 13.0724 33.3334 16.4638 33.3334 20Z" fill="white"/>
</svg>