<svg width="40" height="40" viewBox="0 0 40 40" fill="none" xmlns="http://www.w3.org/2000/svg">
<path d="M20 31.6667C20.3296 31.6667 20.6519 31.5689 20.9259 31.3858C21.2 31.2027 21.4136 30.9424 21.5398 30.6378C21.6659 30.3333 21.6989 29.9982 21.6346 29.6749C21.5703 29.3515 21.4116 29.0546 21.1785 28.8215C20.9454 28.5884 20.6484 28.4297 20.3251 28.3654C20.0018 28.3011 19.6667 28.3341 19.3622 28.4602C19.0576 28.5863 18.7973 28.8 18.6142 29.0741C18.4311 29.3481 18.3333 29.6704 18.3333 30C18.3333 30.442 18.5089 30.866 18.8215 31.1785C19.134 31.4911 19.558 31.6667 20 31.6667ZM28.3333 31.6667C28.663 31.6667 28.9852 31.5689 29.2593 31.3858C29.5334 31.2027 29.747 30.9424 29.8731 30.6378C29.9993 30.3333 30.0323 29.9982 29.968 29.6749C29.9037 29.3515 29.7449 29.0546 29.5118 28.8215C29.2788 28.5884 28.9818 28.4297 28.6585 28.3654C28.3352 28.3011 28.0001 28.3341 27.6955 28.4602C27.391 28.5863 27.1307 28.8 26.9475 29.0741C26.7644 29.3481 26.6667 29.6704 26.6667 30C26.6667 30.442 26.8423 30.866 27.1548 31.1785C27.4674 31.4911 27.8913 31.6667 28.3333 31.6667ZM28.3333 25C28.663 25 28.9852 24.9023 29.2593 24.7191C29.5334 24.536 29.747 24.2757 29.8731 23.9711C29.9993 23.6666 30.0323 23.3315 29.968 23.0082C29.9037 22.6849 29.7449 22.3879 29.5118 22.1548C29.2788 21.9217 28.9818 21.763 28.6585 21.6987C28.3352 21.6344 28.0001 21.6674 27.6955 21.7935C27.391 21.9197 27.1307 22.1333 26.9475 22.4074C26.7644 22.6815 26.6667 23.0037 26.6667 23.3333C26.6667 23.7754 26.8423 24.1993 27.1548 24.5118C27.4674 24.8244 27.8913 25 28.3333 25ZM20 25C20.3296 25 20.6519 24.9023 20.9259 24.7191C21.2 24.536 21.4136 24.2757 21.5398 23.9711C21.6659 23.6666 21.6989 23.3315 21.6346 23.0082C21.5703 22.6849 21.4116 22.3879 21.1785 22.1548C20.9454 21.9217 20.6484 21.763 20.3251 21.6987C20.0018 21.6344 19.6667 21.6674 19.3622 21.7935C19.0576 21.9197 18.7973 22.1333 18.6142 22.4074C18.4311 22.6815 18.3333 23.0037 18.3333 23.3333C18.3333 23.7754 18.5089 24.1993 18.8215 24.5118C19.134 24.8244 19.558 25 20 25ZM31.6667 5H30V3.33334C30 2.89131 29.8244 2.46739 29.5118 2.15483C29.1993 1.84227 28.7754 1.66667 28.3333 1.66667C27.8913 1.66667 27.4674 1.84227 27.1548 2.15483C26.8423 2.46739 26.6667 2.89131 26.6667 3.33334V5H13.3333V3.33334C13.3333 2.89131 13.1577 2.46739 12.8452 2.15483C12.5326 1.84227 12.1087 1.66667 11.6667 1.66667C11.2246 1.66667 10.8007 1.84227 10.4882 2.15483C10.1756 2.46739 10 2.89131 10 3.33334V5H8.33333C7.00725 5 5.73548 5.52679 4.79779 6.46447C3.86011 7.40215 3.33333 8.67392 3.33333 10V33.3333C3.33333 34.6594 3.86011 35.9312 4.79779 36.8689C5.73548 37.8066 7.00725 38.3333 8.33333 38.3333H31.6667C32.9927 38.3333 34.2645 37.8066 35.2022 36.8689C36.1399 35.9312 36.6667 34.6594 36.6667 33.3333V10C36.6667 8.67392 36.1399 7.40215 35.2022 6.46447C34.2645 5.52679 32.9927 5 31.6667 5ZM33.3333 33.3333C33.3333 33.7754 33.1577 34.1993 32.8452 34.5118C32.5326 34.8244 32.1087 35 31.6667 35H8.33333C7.8913 35 7.46738 34.8244 7.15482 34.5118C6.84226 34.1993 6.66666 33.7754 6.66666 33.3333V18.3333H33.3333V33.3333ZM33.3333 15H6.66666V10C6.66666 9.55798 6.84226 9.13405 7.15482 8.82149C7.46738 8.50893 7.8913 8.33334 8.33333 8.33334H10V10C10 10.442 10.1756 10.866 10.4882 11.1785C10.8007 11.4911 11.2246 11.6667 11.6667 11.6667C12.1087 11.6667 12.5326 11.4911 12.8452 11.1785C13.1577 10.866 13.3333 10.442 13.3333 10V8.33334H26.6667V10C26.6667 10.442 26.8423 10.866 27.1548 11.1785C27.4674 11.4911 27.8913 11.6667 28.3333 11.6667C28.7754 11.6667 29.1993 11.4911 29.5118 11.1785C29.8244 10.866 30 10.442 30 10V8.33334H31.6667C32.1087 8.33334 32.5326 8.50893 32.8452 8.82149C33.1577 9.13405 33.3333 9.55798 33.3333 10V15ZM11.6667 25C11.9963 25 12.3185 24.9023 12.5926 24.7191C12.8667 24.536 13.0803 24.2757 13.2065 23.9711C13.3326 23.6666 13.3656 23.3315 13.3013 23.0082C13.237 22.6849 13.0783 22.3879 12.8452 22.1548C12.6121 21.9217 12.3151 21.763 11.9918 21.6987C11.6685 21.6344 11.3334 21.6674 11.0289 21.7935C10.7243 21.9197 10.464 22.1333 10.2809 22.4074C10.0977 22.6815 10 23.0037 10 23.3333C10 23.7754 10.1756 24.1993 10.4882 24.5118C10.8007 24.8244 11.2246 25 11.6667 25ZM11.6667 31.6667C11.9963 31.6667 12.3185 31.5689 12.5926 31.3858C12.8667 31.2027 13.0803 30.9424 13.2065 30.6378C13.3326 30.3333 13.3656 29.9982 13.3013 29.6749C13.237 29.3515 13.0783 29.0546 12.8452 28.8215C12.6121 28.5884 12.3151 28.4297 11.9918 28.3654C11.6685 28.3011 11.3334 28.3341 11.0289 28.4602C10.7243 28.5863 10.464 28.8 10.2809 29.0741C10.0977 29.3481 10 29.6704 10 30C10 30.442 10.1756 30.866 10.4882 31.1785C10.8007 31.4911 11.2246 31.6667 11.6667 31.6667Z" fill="white"/>
</svg>