<svg width="50" height="50" viewBox="0 0 50 50" fill="none" xmlns="http://www.w3.org/2000/svg">
<path d="M16.271 7.33619C16.2687 5.88715 16.779 4.47006 17.7375 3.26415C18.696 2.05824 20.0596 1.11766 21.6558 0.561374C23.252 0.00508728 25.0092 -0.141924 26.7051 0.138932C28.4011 0.419788 29.9595 1.1159 31.1834 2.13922C32.4074 3.16255 33.2418 4.46713 33.5811 5.88797C33.9205 7.30882 33.7496 8.78211 33.09 10.1215C32.4304 11.4609 31.3118 12.6063 29.8755 13.4128C28.4393 14.2193 26.7501 14.6507 25.0214 14.6524H25.0094C23.8626 14.6529 22.7268 14.4641 21.667 14.0968C20.6071 13.7294 19.644 13.1906 18.8326 12.5113C18.0211 11.8319 17.3773 11.0252 16.9378 10.1373C16.4983 9.24933 16.2717 8.29752 16.271 7.33619ZM49.9877 19.2486C49.9441 18.7686 49.7881 18.3006 49.5286 17.8713C49.269 17.4419 48.9111 17.0597 48.4752 16.7463C48.0393 16.433 47.534 16.1948 46.9882 16.0453C46.4424 15.8958 45.8668 15.838 45.2943 15.8751H45.2722L29.9791 17.0191C29.4571 17.0591 28.9333 17.0792 28.4113 17.0792H21.6076C21.0855 17.0792 20.5646 17.0596 20.0448 17.0205L4.7262 15.8751C3.5724 15.7948 2.42784 16.1021 1.5443 16.7293C0.660772 17.3564 0.110647 18.2521 0.0149491 19.2192C-0.0807488 20.1864 0.28582 21.1458 1.03401 21.8864C1.78221 22.627 2.85074 23.0881 4.00454 23.1683H4.04208L16.4024 24.1065C16.7637 24.1342 17.0997 24.2738 17.3448 24.498C17.5899 24.7223 17.7265 25.015 17.728 25.3191V28.1249C17.7288 28.7343 17.5922 29.3384 17.3254 29.9053L10.3186 44.8566C10.0866 45.2965 9.96028 45.7704 9.94679 46.2512C9.93329 46.7321 10.0329 47.2105 10.24 47.659C10.447 48.1076 10.7575 48.5176 11.1536 48.8656C11.5496 49.2136 12.0236 49.4928 12.5484 49.6873C13.0733 49.8818 13.6386 49.9877 14.2123 49.999C14.7859 50.0103 15.3566 49.9268 15.8918 49.7532C16.4269 49.5797 16.916 49.3195 17.3312 48.9874C17.7464 48.6554 18.0795 48.2581 18.3115 47.8182L24.9889 34.1454L31.733 47.8554C32.2202 48.7172 33.0892 49.3857 34.1553 49.7188C35.2214 50.0518 36.4004 50.0232 37.4417 49.6389C38.483 49.2547 39.3044 48.5451 39.7313 47.6611C40.1581 46.7771 40.1568 45.7884 39.7275 44.9052L32.6935 29.9096C32.4287 29.3428 32.2927 28.7394 32.2925 28.1306V25.3263C32.2936 25.0219 32.43 24.7288 32.6752 24.5043C32.9203 24.2798 33.2565 24.1399 33.6181 24.1122L45.958 23.1755C46.5302 23.1395 47.0884 23.0093 47.6006 22.7925C48.1128 22.5756 48.569 22.2763 48.9432 21.9117C49.3174 21.547 49.6022 21.1241 49.7815 20.6672C49.9607 20.2103 50.0307 19.7282 49.9877 19.2486Z" fill="#755B51"/>
</svg>