<svg width="40" height="40" viewBox="0 0 40 40" fill="none" xmlns="http://www.w3.org/2000/svg">
<path d="M20.7333 21.85L20.45 21.6667C20.1449 21.5411 19.8094 21.5089 19.486 21.5742C19.1626 21.6395 18.8659 21.7993 18.6333 22.0333C18.4725 22.1812 18.3471 22.3635 18.2667 22.5667C18.1791 22.7722 18.1338 22.9933 18.1333 23.2167C18.136 23.4345 18.1813 23.6496 18.2667 23.85C18.4458 24.2505 18.7662 24.5709 19.1667 24.75C19.367 24.8354 19.5822 24.8807 19.8 24.8833C20.023 24.8792 20.2434 24.834 20.45 24.75C20.65 24.6638 20.8312 24.5392 20.9833 24.3833C21.2938 24.0711 21.468 23.6486 21.468 23.2083C21.468 22.768 21.2938 22.3456 20.9833 22.0333L20.7333 21.85ZM19.8 10C19.0048 9.99105 18.2209 10.1892 17.5254 10.5749C16.83 10.9606 16.2468 11.5207 15.8333 12.2C15.7127 12.3897 15.6318 12.6018 15.5953 12.8236C15.5588 13.0454 15.5676 13.2723 15.621 13.4906C15.6745 13.709 15.7716 13.9142 15.9065 14.0941C16.0413 14.2739 16.2112 14.4246 16.4058 14.5371C16.6004 14.6496 16.8157 14.7215 17.0389 14.7486C17.262 14.7757 17.4883 14.7574 17.7042 14.6948C17.9201 14.6322 18.1211 14.5265 18.2951 14.3842C18.4691 14.2419 18.6125 14.0658 18.7167 13.8667C18.8396 13.6957 19.0028 13.5576 19.1917 13.4646C19.3806 13.3716 19.5895 13.3265 19.8 13.3333C20.1315 13.3333 20.4495 13.465 20.6839 13.6995C20.9183 13.9339 21.05 14.2518 21.05 14.5833C21.05 14.9149 20.9183 15.2328 20.6839 15.4672C20.4495 15.7016 20.1315 15.8333 19.8 15.8333C19.358 15.8333 18.9341 16.0089 18.6215 16.3215C18.3089 16.634 18.1333 17.058 18.1333 17.5C18.1333 17.942 18.3089 18.3659 18.6215 18.6785C18.9341 18.9911 19.358 19.1667 19.8 19.1667C21.0156 19.1667 22.1814 18.6838 23.0409 17.8242C23.9004 16.9647 24.3833 15.7989 24.3833 14.5833C24.3833 13.3678 23.9004 12.202 23.0409 11.3424C22.1814 10.4829 21.0156 10 19.8 10ZM34.1 16.1333C33.879 13.691 33.0278 11.3479 31.6297 9.33318C30.2316 7.31847 28.3344 5.7012 26.1239 4.63958C23.9133 3.57795 21.4649 3.10835 19.0184 3.2767C16.5719 3.44505 14.211 4.24559 12.1667 5.6C10.4153 6.77107 8.94509 8.3155 7.86157 10.1223C6.77806 11.9291 6.10816 13.9535 5.9 16.05C5.6958 18.1328 5.95779 20.2349 6.66695 22.2038C7.37611 24.1727 8.51466 25.9591 10 27.4333L18.8333 36.2833C18.9883 36.4395 19.1726 36.5635 19.3757 36.6482C19.5788 36.7328 19.7966 36.7763 20.0167 36.7763C20.2367 36.7763 20.4545 36.7328 20.6576 36.6482C20.8607 36.5635 21.0451 36.4395 21.2 36.2833L30 27.4333C31.4853 25.9591 32.6239 24.1727 33.3331 22.2038C34.0422 20.2349 34.3042 18.1328 34.1 16.05V16.1333ZM27.6667 25.0833L20 32.75L12.3333 25.0833C11.2035 23.9534 10.338 22.5872 9.79911 21.0829C9.26022 19.5786 9.06131 17.9737 9.21667 16.3833C9.37303 14.7685 9.88627 13.2086 10.7193 11.8164C11.5523 10.4242 12.6843 9.23451 14.0333 8.33333C15.8016 7.15873 17.8772 6.53216 20 6.53216C22.1228 6.53216 24.1984 7.15873 25.9667 8.33333C27.3116 9.23103 28.4411 10.4155 29.2739 11.8016C30.1067 13.1877 30.6222 14.741 30.7833 16.35C30.9438 17.9457 30.7473 19.5571 30.2083 21.0676C29.6693 22.578 28.8011 23.9497 27.6667 25.0833Z" fill="white"/>
</svg>