<svg width="282" height="172" viewBox="0 0 282 172" fill="none" xmlns="http://www.w3.org/2000/svg">
<path fill-rule="evenodd" clip-rule="evenodd" d="M136.525 45.525C137.025 45.525 137.525 45.525 138.025 45.525C138.074 43.3485 138.024 41.1985 137.875 39.075C133.69 39.5457 130.615 37.9457 128.65 34.275C127.182 30.221 128.107 26.846 131.425 24.15C133.396 22.9212 135.546 22.4462 137.875 22.725C137.875 21.875 137.875 21.0251 137.875 20.175C135.112 18.9786 133.711 16.8536 133.675 13.8C134.165 9.86037 136.39 7.68537 140.35 7.275C144.491 7.64055 146.765 9.89055 147.175 14.025C147.061 16.9062 145.711 18.9563 143.125 20.175C142.976 21.0192 142.926 21.8691 142.975 22.725C145.426 22.7 147.875 22.725 150.325 22.8C151.968 23.4622 152.493 24.6372 151.9 26.325C151.479 27.144 150.804 27.6191 149.875 27.75C147.575 27.825 145.276 27.85 142.975 27.825C142.975 29.875 142.975 31.925 142.975 33.975C147.633 33.9612 150.658 36.1613 152.05 40.575C152.593 44.4624 151.218 47.4373 147.925 49.5C146.36 50.2441 144.71 50.5692 142.975 50.475C142.975 52.575 142.975 54.675 142.975 56.775C144.326 56.7501 145.676 56.775 147.025 56.85C148.717 57.561 149.242 58.786 148.6 60.525C148.316 61.0587 147.891 61.4337 147.325 61.65C145.887 61.863 144.437 61.938 142.975 61.875C143.038 63.2873 142.963 64.6872 142.75 66.075C141.859 67.5386 140.634 67.9136 139.075 67.2C138.694 66.8693 138.369 66.4943 138.1 66.075C137.887 64.6872 137.812 63.2873 137.875 61.875C133.179 61.7655 130.354 59.4155 129.4 54.825C129.082 50.1418 131.157 47.0668 135.625 45.6C135.921 45.5257 136.221 45.5007 136.525 45.525Z" fill="#55A092"/>
<path fill-rule="evenodd" clip-rule="evenodd" d="M119.125 8.325C123.025 8.30001 126.925 8.325 130.825 8.4C132.731 9.21963 133.206 10.5446 132.25 12.375C131.895 12.8804 131.42 13.2054 130.825 13.35C126.925 13.45 123.025 13.45 119.125 13.35C117.314 12.4172 116.889 11.0422 117.85 9.225C118.26 8.88721 118.685 8.58721 119.125 8.325Z" fill="#54A092"/>
<path fill-rule="evenodd" clip-rule="evenodd" d="M149.875 8.325C153.775 8.30001 157.675 8.325 161.575 8.4C163.398 9.12271 163.923 10.3977 163.15 12.225C162.747 12.7791 162.222 13.1541 161.575 13.35C157.675 13.45 153.775 13.45 149.875 13.35C147.967 12.3269 147.592 10.9019 148.75 9.075C149.122 8.80288 149.497 8.55288 149.875 8.325Z" fill="#54A092"/>
<path fill-rule="evenodd" clip-rule="evenodd" d="M139.675 10.725C142.023 10.6246 143.373 11.7246 143.725 14.025C143.477 15.973 142.377 17.073 140.425 17.325C138.098 16.9726 137.023 15.6226 137.2 13.275C137.653 12.0473 138.478 11.1973 139.675 10.725Z" fill="#FCFDFD"/>
<path fill-rule="evenodd" clip-rule="evenodd" d="M123.325 14.625C125.985 14.5562 128.635 14.6312 131.275 14.85C133.023 16.0589 133.223 17.4839 131.875 19.125C131.567 19.3791 131.217 19.5542 130.825 19.65C128.275 19.7501 125.725 19.7501 123.175 19.65C121.398 18.5603 121.073 17.1353 122.2 15.375C122.572 15.1029 122.947 14.8529 123.325 14.625Z" fill="#55A092"/>
<path fill-rule="evenodd" clip-rule="evenodd" d="M149.875 14.625C152.535 14.5562 155.185 14.6312 157.825 14.85C159.523 15.9704 159.773 17.3703 158.575 19.05C158.217 19.3292 157.817 19.5291 157.375 19.65C154.875 19.7501 152.375 19.7501 149.875 19.65C148.201 18.8349 147.726 17.5599 148.45 15.825C148.866 15.3326 149.341 14.9325 149.875 14.625Z" fill="#55A092"/>
<path fill-rule="evenodd" clip-rule="evenodd" d="M137.875 27.825C137.875 29.8751 137.875 31.925 137.875 33.975C137.125 33.975 136.375 33.975 135.625 33.975C133.605 33.3762 132.78 32.0262 133.15 29.925C133.458 29.1168 133.983 28.4919 134.725 28.05C135.762 27.8424 136.812 27.7674 137.875 27.825Z" fill="#FDFEFE"/>
<path fill-rule="evenodd" clip-rule="evenodd" d="M137.875 27.825C138.024 29.8985 138.074 31.9985 138.025 34.125C137.196 34.1732 136.396 34.1232 135.625 33.975C136.375 33.975 137.125 33.975 137.875 33.975C137.875 31.925 137.875 29.8751 137.875 27.825Z" fill="#7FB7AE"/>
<path fill-rule="evenodd" clip-rule="evenodd" d="M137.875 39.075C138.024 41.1986 138.074 43.3485 138.025 45.525C137.525 45.525 137.025 45.525 136.525 45.525C136.943 45.3785 137.393 45.3285 137.875 45.375C137.875 43.275 137.875 41.175 137.875 39.075Z" fill="#7DB6AC"/>
<path fill-rule="evenodd" clip-rule="evenodd" d="M142.975 39.075C146.248 39.0318 147.523 40.5819 146.8 43.725C145.898 45.1018 144.623 45.6519 142.975 45.375C142.975 43.275 142.975 41.175 142.975 39.075Z" fill="#FCFDFD"/>
<path fill-rule="evenodd" clip-rule="evenodd" d="M136.825 50.475C137.175 50.475 137.525 50.475 137.875 50.475C137.875 52.575 137.875 54.675 137.875 56.775C135.187 56.6601 134.062 55.26 134.5 52.575C134.957 51.511 135.732 50.811 136.825 50.475Z" fill="white"/>
<path d="M37.1163 167.28C35.6963 167.28 34.4463 166.98 33.3663 166.38C32.2863 165.773 31.443 164.927 30.8363 163.84C30.2363 162.747 29.9363 161.467 29.9363 160C29.9363 158.533 30.2463 157.257 30.8663 156.17C31.493 155.077 32.353 154.23 33.4463 153.63C34.5397 153.023 35.7897 152.72 37.1963 152.72C37.9363 152.72 38.613 152.8 39.2263 152.96C39.8397 153.113 40.3697 153.307 40.8163 153.54L40.5363 155.98C40.0297 155.747 39.5063 155.557 38.9663 155.41C38.433 155.257 37.8363 155.18 37.1763 155.18C36.1963 155.18 35.3763 155.387 34.7163 155.8C34.063 156.213 33.5697 156.783 33.2363 157.51C32.903 158.237 32.7363 159.067 32.7363 160C32.7363 160.933 32.8997 161.763 33.2263 162.49C33.553 163.217 34.0397 163.787 34.6863 164.2C35.3397 164.613 36.1497 164.82 37.1163 164.82C37.7897 164.82 38.393 164.747 38.9263 164.6C39.4597 164.453 39.9963 164.26 40.5363 164.02L40.8163 166.46C40.2897 166.707 39.7097 166.903 39.0763 167.05C38.4497 167.203 37.7963 167.28 37.1163 167.28ZM51.2085 167.2C50.0018 167.2 48.9952 166.96 48.1885 166.48C47.3885 165.993 46.7885 165.353 46.3885 164.56C45.9885 163.76 45.7885 162.887 45.7885 161.94C45.7885 161.027 45.9752 160.183 46.3485 159.41C46.7285 158.637 47.2818 158.017 48.0085 157.55C48.7352 157.077 49.6218 156.84 50.6685 156.84C51.6285 156.84 52.4285 157.037 53.0685 157.43C53.7085 157.823 54.1885 158.35 54.5085 159.01C54.8285 159.663 54.9885 160.387 54.9885 161.18C54.9885 161.4 54.9752 161.623 54.9485 161.85C54.9218 162.07 54.8818 162.3 54.8285 162.54H48.3685C48.4618 163.16 48.6552 163.663 48.9485 164.05C49.2485 164.43 49.6118 164.71 50.0385 164.89C50.4718 165.07 50.9352 165.16 51.4285 165.16C52.0085 165.16 52.5485 165.087 53.0485 164.94C53.5485 164.787 54.0085 164.587 54.4285 164.34L54.5485 166.44C54.1685 166.64 53.6952 166.817 53.1285 166.97C52.5618 167.123 51.9218 167.2 51.2085 167.2ZM48.4285 160.86H52.4685C52.4685 160.56 52.4118 160.26 52.2985 159.96C52.1852 159.653 51.9952 159.397 51.7285 159.19C51.4685 158.983 51.1152 158.88 50.6685 158.88C50.0285 158.88 49.5252 159.067 49.1585 159.44C48.7918 159.813 48.5485 160.287 48.4285 160.86ZM60.6815 167V157H63.0015L63.1015 158.86L62.5215 158.1C62.9015 157.78 63.3548 157.49 63.8815 157.23C64.4082 156.97 65.0215 156.84 65.7215 156.84C67.0015 156.84 67.9515 157.267 68.5715 158.12C69.1915 158.967 69.5015 160.067 69.5015 161.42V167H67.0215V161.62C67.0215 160.687 66.8648 159.997 66.5515 159.55C66.2448 159.103 65.7415 158.88 65.0415 158.88C64.4748 158.88 64.0115 159.02 63.6515 159.3C63.2915 159.573 62.9748 159.94 62.7015 160.4L63.1615 159.18V167H60.6815ZM78.8595 167.2C78.2328 167.2 77.7228 167.073 77.3295 166.82C76.9361 166.56 76.6461 166.23 76.4595 165.83C76.2728 165.43 76.1795 165.013 76.1795 164.58V159.04H74.7595L74.9795 157H76.1795V154.8L78.6595 154.54V157H80.8595V159.04H78.6595V163.56C78.6595 164.067 78.6895 164.433 78.7495 164.66C78.8095 164.88 78.9461 165.02 79.1595 165.08C79.3728 165.133 79.7128 165.16 80.1795 165.16H80.8595L80.6395 167.2H78.8595ZM86.4745 167V157H88.7945L88.8545 158.06C89.1078 157.78 89.4645 157.5 89.9245 157.22C90.3845 156.94 90.8878 156.8 91.4345 156.8C91.5945 156.8 91.7411 156.813 91.8745 156.84L91.6945 159.28C91.5478 159.24 91.4011 159.213 91.2545 159.2C91.1145 159.187 90.9745 159.18 90.8345 159.18C90.4145 159.18 90.0311 159.277 89.6845 159.47C89.3378 159.663 89.0945 159.9 88.9545 160.18V167H86.4745ZM101.72 167.2C100.514 167.2 99.5069 166.96 98.7002 166.48C97.9002 165.993 97.3002 165.353 96.9002 164.56C96.5002 163.76 96.3002 162.887 96.3002 161.94C96.3002 161.027 96.4869 160.183 96.8602 159.41C97.2402 158.637 97.7936 158.017 98.5202 157.55C99.2469 157.077 100.134 156.84 101.18 156.84C102.14 156.84 102.94 157.037 103.58 157.43C104.22 157.823 104.7 158.35 105.02 159.01C105.34 159.663 105.5 160.387 105.5 161.18C105.5 161.4 105.487 161.623 105.46 161.85C105.434 162.07 105.394 162.3 105.34 162.54H98.8802C98.9736 163.16 99.1669 163.663 99.4602 164.05C99.7602 164.43 100.124 164.71 100.55 164.89C100.984 165.07 101.447 165.16 101.94 165.16C102.52 165.16 103.06 165.087 103.56 164.94C104.06 164.787 104.52 164.587 104.94 164.34L105.06 166.44C104.68 166.64 104.207 166.817 103.64 166.97C103.074 167.123 102.434 167.2 101.72 167.2ZM98.9402 160.86H102.98C102.98 160.56 102.924 160.26 102.81 159.96C102.697 159.653 102.507 159.397 102.24 159.19C101.98 158.983 101.627 158.88 101.18 158.88C100.54 158.88 100.037 159.067 99.6702 159.44C99.3036 159.813 99.0602 160.287 98.9402 160.86ZM120.065 167V153H122.625V158.54H129.025V153H131.585V167H129.025V160.94H122.625V167H120.065ZM142.561 167.2C141.475 167.2 140.548 166.963 139.781 166.49C139.015 166.017 138.428 165.387 138.021 164.6C137.621 163.813 137.421 162.953 137.421 162.02C137.421 161.08 137.621 160.213 138.021 159.42C138.428 158.627 139.015 157.993 139.781 157.52C140.548 157.04 141.475 156.8 142.561 156.8C143.648 156.8 144.575 157.04 145.341 157.52C146.108 157.993 146.691 158.627 147.091 159.42C147.498 160.213 147.701 161.08 147.701 162.02C147.701 162.953 147.498 163.813 147.091 164.6C146.691 165.387 146.108 166.017 145.341 166.49C144.575 166.963 143.648 167.2 142.561 167.2ZM142.561 165.16C143.395 165.16 144.035 164.87 144.481 164.29C144.935 163.703 145.161 162.947 145.161 162.02C145.161 161.08 144.935 160.317 144.481 159.73C144.035 159.137 143.395 158.84 142.561 158.84C141.735 158.84 141.095 159.137 140.641 159.73C140.188 160.317 139.961 161.08 139.961 162.02C139.961 162.947 140.188 163.703 140.641 164.29C141.095 164.87 141.735 165.16 142.561 165.16ZM156.268 167.2C155.608 167.2 155.011 167.137 154.478 167.01C153.951 166.883 153.421 166.7 152.888 166.46L153.108 164.34C153.621 164.64 154.124 164.883 154.618 165.07C155.118 165.25 155.641 165.34 156.188 165.34C156.681 165.34 157.058 165.26 157.318 165.1C157.578 164.94 157.708 164.687 157.708 164.34C157.708 164.08 157.638 163.867 157.498 163.7C157.364 163.533 157.161 163.383 156.888 163.25C156.614 163.117 156.274 162.973 155.868 162.82C155.254 162.593 154.731 162.347 154.298 162.08C153.871 161.813 153.544 161.493 153.318 161.12C153.098 160.74 152.988 160.273 152.988 159.72C152.988 159.147 153.138 158.64 153.438 158.2C153.738 157.76 154.164 157.417 154.718 157.17C155.271 156.923 155.928 156.8 156.688 156.8C157.321 156.8 157.888 156.87 158.388 157.01C158.894 157.15 159.361 157.34 159.788 157.58L159.568 159.7C159.121 159.387 158.671 159.13 158.218 158.93C157.764 158.723 157.268 158.62 156.728 158.62C156.301 158.62 155.971 158.707 155.738 158.88C155.504 159.053 155.388 159.3 155.388 159.62C155.388 160.007 155.551 160.297 155.878 160.49C156.204 160.683 156.728 160.92 157.448 161.2C157.914 161.38 158.318 161.567 158.658 161.76C159.004 161.953 159.291 162.167 159.518 162.4C159.744 162.633 159.911 162.9 160.018 163.2C160.131 163.493 160.188 163.833 160.188 164.22C160.188 164.853 160.034 165.393 159.728 165.84C159.428 166.28 158.984 166.617 158.398 166.85C157.818 167.083 157.108 167.2 156.268 167.2ZM165.885 171.84V157H167.885L168.365 158.66L167.625 158.4C168.085 157.927 168.585 157.55 169.125 157.27C169.665 156.983 170.325 156.84 171.105 156.84C172.085 156.84 172.908 157.077 173.575 157.55C174.241 158.023 174.745 158.653 175.085 159.44C175.431 160.227 175.605 161.087 175.605 162.02C175.605 162.953 175.431 163.813 175.085 164.6C174.745 165.387 174.241 166.017 173.575 166.49C172.908 166.963 172.085 167.2 171.105 167.2C170.325 167.2 169.691 167.093 169.205 166.88C168.718 166.667 168.225 166.327 167.725 165.86L168.365 165.36V171.84H165.885ZM170.725 165.16C171.465 165.16 172.038 164.87 172.445 164.29C172.858 163.703 173.065 162.947 173.065 162.02C173.065 161.087 172.858 160.33 172.445 159.75C172.038 159.17 171.465 158.88 170.725 158.88C170.151 158.88 169.681 159.013 169.315 159.28C168.948 159.547 168.678 159.917 168.505 160.39C168.331 160.857 168.245 161.4 168.245 162.02C168.245 162.64 168.331 163.187 168.505 163.66C168.678 164.127 168.948 164.493 169.315 164.76C169.681 165.027 170.151 165.16 170.725 165.16ZM181.33 167V157H183.81V167H181.33ZM181.33 155.48V153H183.81V155.48H181.33ZM193.395 167.2C192.768 167.2 192.258 167.073 191.865 166.82C191.471 166.56 191.181 166.23 190.995 165.83C190.808 165.43 190.715 165.013 190.715 164.58V159.04H189.295L189.515 157H190.715V154.8L193.195 154.54V157H195.395V159.04H193.195V163.56C193.195 164.067 193.225 164.433 193.285 164.66C193.345 164.88 193.481 165.02 193.695 165.08C193.908 165.133 194.248 165.16 194.715 165.16H195.395L195.175 167.2H193.395ZM203.17 167.2C202.636 167.2 202.15 167.083 201.71 166.85C201.27 166.61 200.92 166.267 200.66 165.82C200.4 165.373 200.27 164.833 200.27 164.2C200.27 163.633 200.4 163.15 200.66 162.75C200.926 162.343 201.273 162.007 201.7 161.74C202.133 161.467 202.6 161.253 203.1 161.1C203.606 160.94 204.103 160.823 204.59 160.75C205.083 160.677 205.516 160.633 205.89 160.62C205.863 160.047 205.716 159.63 205.45 159.37C205.183 159.11 204.73 158.98 204.09 158.98C203.643 158.98 203.206 159.043 202.78 159.17C202.36 159.29 201.883 159.48 201.35 159.74L201.13 157.72C201.73 157.427 202.33 157.207 202.93 157.06C203.536 156.913 204.15 156.84 204.77 156.84C205.516 156.84 206.16 156.973 206.7 157.24C207.24 157.507 207.656 157.937 207.95 158.53C208.243 159.117 208.39 159.893 208.39 160.86V163.56C208.39 164.06 208.413 164.423 208.46 164.65C208.506 164.87 208.593 165.01 208.72 165.07C208.846 165.13 209.03 165.16 209.27 165.16H209.59L209.37 167.2H208.47C208.096 167.2 207.763 167.15 207.47 167.05C207.183 166.957 206.936 166.823 206.73 166.65C206.523 166.477 206.356 166.273 206.23 166.04C205.903 166.407 205.46 166.693 204.9 166.9C204.346 167.1 203.77 167.2 203.17 167.2ZM204.21 165.3C204.43 165.3 204.703 165.243 205.03 165.13C205.356 165.01 205.65 164.827 205.91 164.58V162.3C205.443 162.32 204.976 162.397 204.51 162.53C204.043 162.663 203.653 162.86 203.34 163.12C203.026 163.38 202.87 163.707 202.87 164.1C202.87 164.507 202.976 164.81 203.19 165.01C203.403 165.203 203.743 165.3 204.21 165.3ZM217.531 167.2C216.937 167.2 216.451 167.083 216.071 166.85C215.697 166.61 215.421 166.293 215.241 165.9C215.061 165.5 214.971 165.06 214.971 164.58V152H217.451V163.56C217.451 164.093 217.481 164.473 217.541 164.7C217.607 164.92 217.727 165.053 217.901 165.1C218.074 165.14 218.324 165.16 218.651 165.16L218.431 167.2H217.531ZM224.224 167V157H226.704V167H224.224ZM224.224 155.48V153H226.704V155.48H224.224ZM237.849 167.2C236.642 167.2 235.636 166.96 234.829 166.48C234.029 165.993 233.429 165.353 233.029 164.56C232.629 163.76 232.429 162.887 232.429 161.94C232.429 161.027 232.616 160.183 232.989 159.41C233.369 158.637 233.922 158.017 234.649 157.55C235.376 157.077 236.262 156.84 237.309 156.84C238.269 156.84 239.069 157.037 239.709 157.43C240.349 157.823 240.829 158.35 241.149 159.01C241.469 159.663 241.629 160.387 241.629 161.18C241.629 161.4 241.616 161.623 241.589 161.85C241.562 162.07 241.522 162.3 241.469 162.54H235.009C235.102 163.16 235.296 163.663 235.589 164.05C235.889 164.43 236.252 164.71 236.679 164.89C237.112 165.07 237.576 165.16 238.069 165.16C238.649 165.16 239.189 165.087 239.689 164.94C240.189 164.787 240.649 164.587 241.069 164.34L241.189 166.44C240.809 166.64 240.336 166.817 239.769 166.97C239.202 167.123 238.562 167.2 237.849 167.2ZM235.069 160.86H239.109C239.109 160.56 239.052 160.26 238.939 159.96C238.826 159.653 238.636 159.397 238.369 159.19C238.109 158.983 237.756 158.88 237.309 158.88C236.669 158.88 236.166 159.067 235.799 159.44C235.432 159.813 235.189 160.287 235.069 160.86ZM247.322 167V157H249.642L249.702 158.06C249.955 157.78 250.312 157.5 250.772 157.22C251.232 156.94 251.735 156.8 252.282 156.8C252.442 156.8 252.589 156.813 252.722 156.84L252.542 159.28C252.395 159.24 252.249 159.213 252.102 159.2C251.962 159.187 251.822 159.18 251.682 159.18C251.262 159.18 250.879 159.277 250.532 159.47C250.185 159.663 249.942 159.9 249.802 160.18V167H247.322Z" fill="#54A092"/>
<path d="M11.836 127.588C10.6461 127.588 9.42105 127.469 8.16105 127.231C6.90105 127.007 5.73205 126.734 4.65405 126.412C3.57605 126.076 2.72205 125.754 2.09205 125.446L2.72205 119.734C3.70205 120.21 4.72405 120.651 5.78805 121.057C6.85205 121.463 7.94405 121.792 9.06405 122.044C10.1841 122.296 11.3181 122.422 12.4661 122.422C13.8941 122.422 15.0421 122.142 15.91 121.582C16.7781 121.022 17.2121 120.168 17.2121 119.02C17.2121 118.138 16.9671 117.431 16.4771 116.899C15.9871 116.353 15.2381 115.87 14.2301 115.45C13.2221 115.016 11.9341 114.526 10.3661 113.98C8.79805 113.434 7.39105 112.818 6.14505 112.132C4.89905 111.432 3.91205 110.55 3.18405 109.486C2.45605 108.422 2.09205 107.064 2.09205 105.412C2.09205 103.788 2.49105 102.346 3.28905 101.086C4.08705 99.812 5.27705 98.818 6.85905 98.104C8.45505 97.376 10.436 97.012 12.802 97.012C14.5941 97.012 16.3021 97.215 17.9261 97.621C19.5501 98.013 20.9361 98.44 22.0841 98.902L21.5381 104.404C19.8861 103.662 18.3321 103.102 16.8761 102.724C15.4341 102.332 13.9641 102.136 12.4661 102.136C10.8981 102.136 9.68705 102.395 8.83305 102.913C7.97905 103.431 7.55205 104.208 7.55205 105.244C7.55205 106.07 7.79005 106.735 8.26605 107.239C8.74205 107.743 9.42105 108.177 10.3031 108.541C11.1851 108.891 12.2421 109.262 13.4741 109.654C15.6021 110.326 17.3871 111.068 18.8291 111.88C20.2851 112.678 21.3771 113.651 22.1051 114.799C22.847 115.933 23.218 117.34 23.218 119.02C23.218 119.86 23.0851 120.777 22.8191 121.771C22.5531 122.751 22.0281 123.682 21.2441 124.564C20.4601 125.446 19.3121 126.174 17.8001 126.748C16.3021 127.308 14.3141 127.588 11.836 127.588ZM47.1193 127.588C44.3193 127.588 41.8273 126.958 39.6433 125.698C37.4593 124.424 35.7443 122.646 34.4983 120.364C33.2523 118.068 32.6293 115.38 32.6293 112.3C32.6293 109.22 33.2523 106.539 34.4983 104.257C35.7443 101.961 37.4593 100.183 39.6433 98.923C41.8273 97.649 44.3193 97.012 47.1193 97.012C49.9193 97.012 52.4113 97.649 54.5953 98.923C56.7793 100.183 58.4943 101.961 59.7403 104.257C60.9863 106.539 61.6093 109.22 61.6093 112.3C61.6093 115.38 60.9863 118.068 59.7403 120.364C58.4943 122.646 56.7793 124.424 54.5953 125.698C52.4113 126.958 49.9193 127.588 47.1193 127.588ZM47.1193 122.38C49.0793 122.38 50.7173 121.946 52.0333 121.078C53.3493 120.21 54.3363 119.02 54.9943 117.508C55.6523 115.982 55.9813 114.246 55.9813 112.3C55.9813 110.354 55.6523 108.625 54.9943 107.113C54.3363 105.587 53.3493 104.39 52.0333 103.522C50.7173 102.654 49.0793 102.22 47.1193 102.22C45.1593 102.22 43.5213 102.654 42.2053 103.522C40.8893 104.39 39.9023 105.587 39.2443 107.113C38.5863 108.625 38.2573 110.354 38.2573 112.3C38.2573 114.246 38.5863 115.982 39.2443 117.508C39.9023 119.02 40.8893 120.21 42.2053 121.078C43.5213 121.946 45.1593 122.38 47.1193 122.38ZM73.0235 127V97.6H78.3995V127H73.0235ZM104.659 127.588C101.551 127.588 98.891 126.958 96.679 125.698C94.467 124.424 92.773 122.639 91.597 120.343C90.421 118.047 89.833 115.352 89.833 112.258C89.833 109.192 90.484 106.518 91.786 104.236C93.102 101.94 94.915 100.162 97.225 98.902C99.535 97.642 102.195 97.012 105.205 97.012C106.759 97.012 108.243 97.173 109.657 97.495C111.085 97.817 112.303 98.23 113.311 98.734L112.723 103.858C111.673 103.368 110.511 102.969 109.237 102.661C107.977 102.339 106.633 102.178 105.205 102.178C103.021 102.178 101.229 102.619 99.829 103.501C98.429 104.369 97.393 105.559 96.721 107.071C96.049 108.569 95.713 110.27 95.713 112.174C95.713 114.176 96.049 115.947 96.721 117.487C97.407 119.027 98.429 120.238 99.787 121.12C101.145 121.988 102.839 122.422 104.869 122.422C105.485 122.422 106.129 122.38 106.801 122.296C107.487 122.212 108.187 122.1 108.901 121.96V116.71H104.869V112.258H114.277V125.362C113.255 125.964 111.897 126.489 110.203 126.937C108.523 127.371 106.675 127.588 104.659 127.588ZM126.208 127V97.6H131.5L144.058 116.584V97.6H149.434V127H145.024L131.584 106.84V127H126.208ZM162.623 127V97.6H181.439V102.808H168.125V109.066H178.457V114.274H168.125V121.792H181.859V127H162.623ZM191.828 127L195.902 97.6H200.312L207.494 110.998L214.634 97.6H219.044L223.118 127H217.532L214.718 104.908L216.188 105.202L207.494 120.826L198.758 105.244L200.228 104.95L197.414 127H191.828ZM247.4 127.588C244.6 127.588 242.108 126.958 239.924 125.698C237.74 124.424 236.025 122.646 234.779 120.364C233.533 118.068 232.91 115.38 232.91 112.3C232.91 109.22 233.533 106.539 234.779 104.257C236.025 101.961 237.74 100.183 239.924 98.923C242.108 97.649 244.6 97.012 247.4 97.012C250.2 97.012 252.692 97.649 254.876 98.923C257.06 100.183 258.775 101.961 260.021 104.257C261.267 106.539 261.89 109.22 261.89 112.3C261.89 115.38 261.267 118.068 260.021 120.364C258.775 122.646 257.06 124.424 254.876 125.698C252.692 126.958 250.2 127.588 247.4 127.588ZM247.4 122.38C249.36 122.38 250.998 121.946 252.314 121.078C253.63 120.21 254.617 119.02 255.275 117.508C255.933 115.982 256.262 114.246 256.262 112.3C256.262 110.354 255.933 108.625 255.275 107.113C254.617 105.587 253.63 104.39 252.314 103.522C250.998 102.654 249.36 102.22 247.4 102.22C245.44 102.22 243.802 102.654 242.486 103.522C241.17 104.39 240.183 105.587 239.525 107.113C238.867 108.625 238.538 110.354 238.538 112.3C238.538 114.246 238.867 115.982 239.525 117.508C240.183 119.02 241.17 120.21 242.486 121.078C243.802 121.946 245.44 122.38 247.4 122.38ZM273.304 127V97.6H278.68V127H273.304Z" fill="black"/>
</svg>