<svg width="40" height="40" viewBox="0 0 40 40" fill="none" xmlns="http://www.w3.org/2000/svg">
<path d="M17.5 15.8333H15.8333V14.1667C15.8333 13.7246 15.6577 13.3007 15.3452 12.9882C15.0326 12.6756 14.6087 12.5 14.1667 12.5C13.7246 12.5 13.3007 12.6756 12.9882 12.9882C12.6756 13.3007 12.5 13.7246 12.5 14.1667V15.8333H10.8333C10.3913 15.8333 9.96739 16.0089 9.65483 16.3215C9.34227 16.634 9.16667 17.058 9.16667 17.5C9.16667 17.942 9.34227 18.3659 9.65483 18.6785C9.96739 18.9911 10.3913 19.1667 10.8333 19.1667H12.5V20.8333C12.5 21.2754 12.6756 21.6993 12.9882 22.0118C13.3007 22.3244 13.7246 22.5 14.1667 22.5C14.6087 22.5 15.0326 22.3244 15.3452 22.0118C15.6577 21.6993 15.8333 21.2754 15.8333 20.8333V19.1667H17.5C17.942 19.1667 18.366 18.9911 18.6785 18.6785C18.9911 18.3659 19.1667 17.942 19.1667 17.5C19.1667 17.058 18.9911 16.634 18.6785 16.3215C18.366 16.0089 17.942 15.8333 17.5 15.8333ZM38.2167 19.4167L38.1167 19.2333C38.088 19.1509 38.0487 19.0724 38 19L34 13.6667C33.5343 13.0457 32.9303 12.5417 32.2361 12.1945C31.5418 11.8474 30.7762 11.6667 30 11.6667H26.6667V10C26.6667 8.67392 26.1399 7.40215 25.2022 6.46447C24.2645 5.52678 22.9928 5 21.6667 5H6.66667C5.34059 5 4.06882 5.52678 3.13114 6.46447C2.19346 7.40215 1.66667 8.67392 1.66667 10V28.3333C1.66667 28.7754 1.84227 29.1993 2.15483 29.5118C2.46739 29.8244 2.89131 30 3.33334 30H5C5 31.3261 5.52679 32.5979 6.46447 33.5355C7.40215 34.4732 8.67392 35 10 35C11.3261 35 12.5979 34.4732 13.5355 33.5355C14.4732 32.5979 15 31.3261 15 30H25C25 31.3261 25.5268 32.5979 26.4645 33.5355C27.4021 34.4732 28.6739 35 30 35C31.3261 35 32.5979 34.4732 33.5355 33.5355C34.4732 32.5979 35 31.3261 35 30H36.6667C37.1087 30 37.5326 29.8244 37.8452 29.5118C38.1577 29.1993 38.3333 28.7754 38.3333 28.3333V20C38.3297 19.8001 38.2902 19.6025 38.2167 19.4167ZM10 31.6667C9.67037 31.6667 9.34814 31.5689 9.07405 31.3858C8.79997 31.2026 8.58635 30.9423 8.46021 30.6378C8.33406 30.3333 8.30105 29.9981 8.36536 29.6748C8.42967 29.3515 8.58841 29.0546 8.82149 28.8215C9.05458 28.5884 9.35155 28.4297 9.67485 28.3654C9.99816 28.301 10.3333 28.3341 10.6378 28.4602C10.9424 28.5863 11.2027 28.8 11.3858 29.074C11.5689 29.3481 11.6667 29.6704 11.6667 30C11.6667 30.442 11.4911 30.866 11.1785 31.1785C10.866 31.4911 10.442 31.6667 10 31.6667ZM23.3333 26.6667H13.7C13.2314 26.1511 12.6601 25.7391 12.023 25.4572C11.3858 25.1753 10.6967 25.0297 10 25.0297C9.30326 25.0297 8.6142 25.1753 7.97703 25.4572C7.33986 25.7391 6.76864 26.1511 6.3 26.6667H5V10C5 9.55797 5.1756 9.13405 5.48816 8.82149C5.80072 8.50893 6.22464 8.33333 6.66667 8.33333H21.6667C22.1087 8.33333 22.5326 8.50893 22.8452 8.82149C23.1577 9.13405 23.3333 9.55797 23.3333 10V26.6667ZM26.6667 15H30C30.2587 15 30.5139 15.0602 30.7454 15.176C30.9768 15.2917 31.1781 15.4597 31.3333 15.6667L33.3333 18.3333H26.6667V15ZM30 31.6667C29.6704 31.6667 29.3481 31.5689 29.0741 31.3858C28.8 31.2026 28.5863 30.9423 28.4602 30.6378C28.3341 30.3333 28.3011 29.9981 28.3654 29.6748C28.4297 29.3515 28.5884 29.0546 28.8215 28.8215C29.0546 28.5884 29.3515 28.4297 29.6749 28.3654C29.9982 28.301 30.3333 28.3341 30.6378 28.4602C30.9424 28.5863 31.2027 28.8 31.3858 29.074C31.5689 29.3481 31.6667 29.6704 31.6667 30C31.6667 30.442 31.4911 30.866 31.1785 31.1785C30.866 31.4911 30.442 31.6667 30 31.6667ZM35 26.6667H33.7C32.8131 25.6901 31.5763 25.1035 30.2588 25.0349C28.9414 24.9662 27.6503 25.4209 26.6667 26.3V21.6667H35V26.6667Z" fill="white"/>
</svg>